<svg id="Layer_1" enable-background="new 0 0 512.003 512.003" height="512" viewBox="0 0 512.003 512.003" width="512" xmlns="http://www.w3.org/2000/svg"><g><path d="m468.141 256.001c0 17.777-29.042 31.501-33.424 47.897-4.534 16.964 13.621 43.344 5.027 58.197-8.717 15.067-40.719 12.474-52.947 24.702-12.228 12.227-9.635 44.23-24.702 52.947-14.853 8.593-41.232-9.562-58.197-5.028-16.396 4.382-30.12 33.424-47.897 33.424s-31.501-29.042-47.897-33.424c-16.964-4.534-43.344 13.621-58.197 5.027-15.067-8.717-12.474-40.719-24.702-52.947s-44.23-9.635-52.947-24.702c-8.593-14.853 9.562-41.232 5.028-58.197-4.382-16.396-33.424-30.12-33.424-47.897s29.042-31.501 33.424-47.897c4.534-16.964-13.621-43.344-5.027-58.197 8.717-15.067 40.719-12.474 52.947-24.702s9.635-44.23 24.702-52.947c14.853-8.593 41.232 9.562 58.197 5.028 16.396-4.382 30.12-33.424 47.897-33.424s31.501 29.042 47.897 33.424c16.964 4.534 43.344-13.621 58.197-5.027 15.067 8.717 12.474 40.719 24.702 52.947s44.23 9.635 52.947 24.702c8.593 14.853-9.562 41.232-5.028 58.197 4.382 16.396 33.424 30.12 33.424 47.897z" fill="#ffbbdb"/><g><path d="m434.717 208.105c-4.534-16.964 13.621-43.344 5.028-58.197-8.717-15.067-40.719-12.474-52.947-24.702s-9.635-44.23-24.702-52.947c-9.253-5.354-22.979-.327-36.115 3.129 10.817 11.568 9.766 38.767 20.817 49.818 12.227 12.228 44.23 9.635 52.947 24.702 8.594 14.853-9.562 41.232-5.028 58.197 4.382 16.396 33.424 30.12 33.424 47.897s-29.042 31.501-33.424 47.897c-4.534 16.964 13.621 43.344 5.027 58.197-8.717 15.067-40.719 12.474-52.947 24.702-11.051 11.051-10 38.25-20.817 49.818 13.136 3.456 26.862 8.483 36.115 3.129 15.067-8.717 12.474-40.719 24.702-52.947s44.23-9.635 52.947-24.702c8.594-14.853-9.562-41.232-5.027-58.197 4.382-16.396 33.424-30.12 33.424-47.897 0-17.778-29.042-31.502-33.424-47.897z" fill="#ff9ece"/></g><g><circle cx="256.002" cy="256.001" fill="#f54c5a" r="140.003"/><g fill="#f3f3ff"><path d="m315.762 214.064-101.697 101.698c-4.922 4.922-12.902 4.922-17.824 0-4.922-4.922-4.922-12.902 0-17.824l101.697-101.698c4.922-4.922 12.902-4.922 17.824 0 4.922 4.923 4.922 12.903 0 17.824z"/><g><circle cx="210.176" cy="210.176" r="19.082"/><circle cx="301.827" cy="301.827" r="19.082"/></g></g></g><g><g><path d="m420.709 96.2c-1.92 0-3.839-.732-5.304-2.197-2.929-2.929-2.929-7.678.001-10.606l15.563-15.563c2.931-2.929 7.679-2.929 10.607 0s2.929 7.678-.001 10.606l-15.563 15.563c-1.464 1.465-3.384 2.197-5.303 2.197z" fill="#fff3a7"/></g><g><path d="m314.997 36.263c-.643 0-1.296-.083-1.946-.257-4.001-1.072-6.375-5.185-5.303-9.186l5.696-21.259c1.071-4.001 5.183-6.374 9.186-5.304 4.001 1.072 6.375 5.185 5.303 9.186l-5.696 21.259c-.898 3.351-3.929 5.561-7.24 5.561z" fill="#fff3a7"/></g><g><path d="m193.464 37.212c-3.312 0-6.342-2.21-7.239-5.561l-5.696-21.259c-1.072-4.001 1.302-8.113 5.303-9.186 4.002-1.07 8.114 1.303 9.186 5.304l5.696 21.259c1.072 4.001-1.302 8.113-5.303 9.186-.652.173-1.305.257-1.947.257z" fill="#fff3a7"/></g><g><path d="m88.701 98.794c-1.919 0-3.839-.732-5.303-2.196l-15.563-15.563c-2.93-2.929-2.93-7.678-.001-10.607 2.93-2.929 7.679-2.929 10.606 0l15.564 15.562c2.93 2.929 2.93 7.678.001 10.607-1.465 1.464-3.385 2.197-5.304 2.197z" fill="#fff3a7"/></g><g><path d="m28.766 204.513c-.643 0-1.296-.083-1.946-.257l-21.26-5.696c-4.001-1.072-6.375-5.185-5.303-9.186 1.071-4.001 5.184-6.376 9.186-5.304l21.26 5.696c4.001 1.072 6.375 5.185 5.303 9.186-.898 3.351-3.928 5.561-7.24 5.561z" fill="#fff3a7"/></g><g><path d="m8.446 331.733c-3.312 0-6.342-2.21-7.239-5.561-1.072-4.001 1.302-8.114 5.303-9.186l21.26-5.697c4.002-1.069 8.114 1.302 9.186 5.303s-1.302 8.114-5.303 9.186l-21.26 5.697c-.651.175-1.304.258-1.947.258z" fill="#fff3a7"/></g><g><path d="m75.731 446.366c-1.92 0-3.839-.732-5.304-2.197-2.929-2.929-2.929-7.678.001-10.606l15.563-15.563c2.929-2.93 7.678-2.929 10.606 0 2.929 2.929 2.929 7.678-.001 10.606l-15.563 15.563c-1.463 1.464-3.383 2.197-5.302 2.197z" fill="#fff3a7"/></g><g><path d="m191.32 512.003c-.643 0-1.296-.083-1.946-.257-4.001-1.072-6.375-5.185-5.303-9.186l5.696-21.259c1.071-4.001 5.183-6.375 9.186-5.304 4.001 1.072 6.375 5.185 5.303 9.186l-5.696 21.259c-.898 3.351-3.928 5.561-7.24 5.561z" fill="#fff3a7"/></g><g><path d="m324.226 511.054c-3.312 0-6.342-2.21-7.239-5.561l-5.696-21.259c-1.072-4.001 1.302-8.113 5.303-9.186 4.001-1.069 8.113 1.302 9.186 5.304l5.696 21.259c1.072 4.001-1.302 8.113-5.303 9.186-.651.174-1.304.257-1.947.257z" fill="#fff3a7"/></g><g><path d="m438.866 443.771c-1.919 0-3.839-.732-5.303-2.196l-15.563-15.562c-2.93-2.929-2.93-7.678-.001-10.607 2.93-2.929 7.679-2.929 10.606 0l15.563 15.563c2.93 2.929 2.93 7.678.001 10.607-1.464 1.463-3.384 2.195-5.303 2.195z" fill="#fff3a7"/></g><g><path d="m504.507 328.19c-.643 0-1.296-.083-1.946-.257l-21.26-5.696c-4.001-1.072-6.375-5.185-5.303-9.186 1.071-4.001 5.183-6.375 9.186-5.304l21.26 5.696c4.001 1.072 6.375 5.185 5.303 9.186-.899 3.351-3.929 5.561-7.24 5.561z" fill="#fff3a7"/></g><g><path d="m482.288 200.97c-3.312 0-6.342-2.21-7.239-5.561-1.072-4.001 1.302-8.114 5.303-9.186l21.26-5.697c4.003-1.071 8.114 1.303 9.186 5.303 1.072 4.001-1.302 8.114-5.303 9.186l-21.26 5.697c-.651.175-1.305.258-1.947.258z" fill="#fff3a7"/></g></g></g></svg>